# xmcd
#
# Track frame offsets: 
#        150
#        20978
#        41454
#        60404
#        83118
#        104278
#        127664
#        149171
#        169936
#        188164
#        208522
#        232640
#        256761
#        275157
#        306712
#        328018
#
# Disc length: 4772 seconds
#
# Revision: 0
# Processed by: cddbd v1.5.2PL0 Copyright (c) Steve Scherf et al.
# Submitted via: ExactAudioCopy v1.0b3
#
DISCID=e512a210
DTITLE=Jermaine Jackson - Don't Take It Personal
DYEAR=1989
DGENRE=R&B
TTITLE0=Climb Out
TTITLE1=Don't Take It Personal
TTITLE2=Make It Easy On Love
TTITLE3=So Right
TTITLE4=I'd Like To Get To Know You
TTITLE5=Two Ships (In The Night)
TTITLE6=Rise To The Occasion
TTITLE7=(C'mon) Feel The Need
TTITLE8=Next To You
TTITLE9=Don't Make Me Wait
TTITLE10=Don't Take It Personal (Extended Version)
TTITLE11=Don't Take It Personal (Jazzy Instrumental)
TTITLE12=I'd Like To Get To Know You (Single Version)
TTITLE13=Two Ships (In The Night) (Instrumental Remix Version)
TTITLE14=Two Ships (In The Night) (Late Night Turbulence Mix)
TTITLE15=Two Ships (In The Night) (Extended Version)
EXTD=
EXTT0=
EXTT1=
EXTT2=
EXTT3=
EXTT4=
EXTT5=
EXTT6=
EXTT7=
EXTT8=
EXTT9=
EXTT10=
EXTT11=
EXTT12=
EXTT13=
EXTT14=
EXTT15=
PLAYORDER=
